<svg data-name="25%" xmlns="http://www.w3.org/2000/svg" width="30" height="30" viewBox="0 0 30 30">
    <g data-name="Path 269" style="fill:#fff">
        <path d="M15 29.25a14.157 14.157 0 0 1-10.076-4.174A14.157 14.157 0 0 1 .75 15c0-3.806 1.482-7.385 4.174-10.076A14.157 14.157 0 0 1 15 .75c3.806 0 7.385 1.482 10.076 4.174A14.157 14.157 0 0 1 29.25 15c0 3.806-1.482 7.385-4.174 10.076A14.157 14.157 0 0 1 15 29.25z" style="stroke:none"/>
        <path d="M15 1.5a13.412 13.412 0 0 0-9.546 3.954A13.412 13.412 0 0 0 1.5 15c0 3.606 1.404 6.996 3.954 9.546A13.412 13.412 0 0 0 15 28.5c3.606 0 6.996-1.404 9.546-3.954A13.412 13.412 0 0 0 28.5 15c0-3.606-1.404-6.996-3.954-9.546A13.412 13.412 0 0 0 15 1.5M15 0c8.284 0 15 6.716 15 15 0 8.284-6.716 15-15 15-8.284 0-15-6.716-15-15C0 6.716 6.716 0 15 0z" style="fill:#f69643;stroke:none"/>
    </g>
    <path data-name="Path 239" d="M7257 19689.838V19704h14.006c.739-3.2-.177-13.209-14.006-14.162z" transform="translate(-7242 -19689)" style="fill:#f69643"/>
</svg>
