<svg xmlns="http://www.w3.org/2000/svg" width="17.546" height="17.835" viewBox="0 0 17.546 17.835">
    <g data-name="Group 429">
        <path data-name="Path 259" d="m17.367 16.77-3.032-3.239A7.99 7.99 0 0 0 16.471 8.1 8.168 8.168 0 0 0 8.238 0 8.167 8.167 0 0 0 .006 8.1a8.167 8.167 0 0 0 8.232 8.1 8.279 8.279 0 0 0 5.182-1.809l3.051 3.259a.64.64 0 0 0 .9 0 .617.617 0 0 0-.004-.88zm-9.129-1.814A6.911 6.911 0 0 1 1.273 8.1a6.911 6.911 0 0 1 6.965-6.854A6.911 6.911 0 0 1 15.2 8.1a6.911 6.911 0 0 1-6.962 6.856z" transform="translate(-.006)" style="fill:#727e98"/>
    </g>
</svg>
