<svg xmlns="http://www.w3.org/2000/svg" xmlns:xlink="http://www.w3.org/1999/xlink" width="279.48" height="87.833" viewBox="0 0 279.48 87.833">
    <defs>
        <radialGradient id="habjwypwha" cx="-1.498" cy="1.019" r="1.259" gradientTransform="matrix(2.903 0 0 1 -.952 0)" gradientUnits="objectBoundingBox">
            <stop offset="0" stop-color="#9effba"/>
            <stop offset=".467" stop-color="#52ccdb"/>
            <stop offset="1" stop-color="#0195ff"/>
        </radialGradient>
        <radialGradient id="326noz188b" cx="1.351" cy="-1.237" r="2.391" gradientTransform="matrix(2.603 0 0 1 -.801 0)" xlink:href="#habjwypwha"/>
    </defs>
    <g data-name="Group 60796">
        <g data-name="Group 5586">
            <g data-name="Group 4310">
                <path data-name="Path 401" d="M113.646 4376.47h-10.939v-5.913h28.383v5.913h-10.94v28.58h-6.5z" transform="translate(-102.707 -4348.83)" style="fill:#004096"/>
                <path data-name="Path 402" d="M163.037 4406.795c.394 3.005 3.005 5.174 7.243 5.174 2.218 0 5.124-.837 6.5-2.266l3.844 3.794c-2.562 2.661-6.751 3.941-10.446 3.941-8.377 0-13.354-5.173-13.354-12.959 0-7.392 5.026-12.713 12.91-12.713 8.13 0 13.206 5.026 12.27 15.029zm13.205-4.977c-.394-3.153-2.858-4.73-6.307-4.73-3.252 0-5.913 1.577-6.8 4.73z" transform="translate(-132.685 -4360.578)" style="fill:#004096"/>
                <path data-name="Path 403" d="M242.719 4413.755a12.5 12.5 0 0 1-9.362 3.843c-7.047 0-12.911-4.238-12.911-12.861s5.864-12.86 12.911-12.86a11.54 11.54 0 0 1 8.771 3.6l-3.794 3.992a7.382 7.382 0 0 0-4.879-1.922 6.834 6.834 0 0 0-7 7.194c0 4.631 3.154 7.1 6.9 7.1a7.3 7.3 0 0 0 5.322-2.02z" transform="translate(-167.923 -4360.639)" style="fill:#004096"/>
                <path data-name="Path 404" d="M282.346 4370.557v13.5a8.972 8.972 0 0 1 7.588-3.646c6.9 0 9.954 4.682 9.954 11.828v12.811h-6.012v-12.762c0-4.436-2.316-6.308-5.519-6.308-3.548 0-6.012 3.006-6.012 6.652v12.417h-6.012v-34.493z" transform="translate(-198.879 -4348.83)" style="fill:#004096"/>
            </g>
            <g data-name="Group 4311">
                <g data-name="Group 4312">
                    <path data-name="Path 405" d="M445.325 4394.5h-9.757v10.151h-6.5v-34.493c5.421 0 10.841-.05 16.261-.05 16.848.001 16.898 24.392-.004 24.392zm-9.757-5.962h9.757c8.327 0 8.278-12.22 0-12.22h-9.757z" transform="translate(-275.277 -4348.382)" style="fill:#004096"/>
                    <path data-name="Path 406" d="M518.031 4392.351h5.769v24.292h-5.667l-.3-3.548c-1.38 2.858-5.174 4.238-7.884 4.288-7.194.049-12.516-4.386-12.516-12.911 0-8.377 5.568-12.762 12.663-12.713 3.253 0 6.357 1.528 7.736 3.942zm-14.585 12.122a6.958 6.958 0 0 0 7.194 7.391c9.461 0 9.461-14.733 0-14.733a6.918 6.918 0 0 0-7.194 7.341z" transform="translate(-313.147 -4360.374)" style="fill:#004096"/>
                    <path data-name="Path 407" d="M585.6 4416.888v-12.713c0-3.7-2.021-6.5-5.864-6.5-3.7 0-6.209 3.1-6.209 6.8v12.417h-5.963v-24.342h5.371l.394 3.3c2.464-2.415 4.928-3.646 7.983-3.646 5.716 0 10.3 4.287 10.3 11.925v12.762z" transform="translate(-351.995 -4360.619)" style="fill:#004096"/>
                    <path data-name="Path 408" d="M636.845 4406.458c.394 3 3.006 5.173 7.244 5.173 2.217 0 5.124-.838 6.5-2.267l3.844 3.794c-2.562 2.661-6.751 3.942-10.446 3.942-8.377 0-13.354-5.174-13.354-12.96 0-7.392 5.026-12.713 12.911-12.713 8.13 0 13.205 5.026 12.269 15.029zm13.206-4.977c-.394-3.153-2.858-4.731-6.307-4.731-3.252 0-5.913 1.578-6.8 4.731z" transform="translate(-386.928 -4360.19)" style="fill:#004096"/>
                    <path data-name="Path 409" d="M703.421 4370.331v34.443h-5.963v-34.443z" transform="translate(-423.941 -4348.505)" style="fill:#004096"/>
                </g>
            </g>
            <path data-name="Path 401" d="M345.171 4350.985v.8l21.539-10.5v48.914l-21.539-10.784v.953l30.252 28.86v-87.833z" transform="translate(-232.898 -4321.388)" style="fill:url(#habjwypwha)"/>
            <path data-name="Path 402" d="m355.747 4394.482-10.578-4.876v27.533l10.578-4.727zm-2.176 10.634c-.568 0-1.029-.781-1.029-1.745s.461-1.744 1.029-1.744 1.03.781 1.03 1.744-.461 1.746-1.03 1.746z" transform="translate(-232.898 -4359.174)" style="fill:url(#326noz188b)"/>
        </g>
    </g>
</svg>
