<svg xmlns="http://www.w3.org/2000/svg" width="32.652" height="32.65" viewBox="0 0 32.652 32.65">
    <g data-name="Path 302" style="fill:none;fill-rule:evenodd">
        <path d="M2.212 13.412A14.086 14.086 0 0 1 13.927 2.188C23.68.662 31.991 8.643 30.47 18.037a14.073 14.073 0 0 1-11.475 11.352 14.806 14.806 0 0 1-8.169-.829 2.606 2.606 0 0 0-2.079.014l-4.273 2a.776.776 0 0 1-1.1-.862l1.2-4.658a2.349 2.349 0 0 0-.353-1.882 13.355 13.355 0 0 1-2.009-9.76zm6.95.049a1.426 1.426 0 0 0 1.426 1.433h11.474a1.433 1.433 0 0 0 0-2.865H10.589a1.439 1.439 0 0 0-1.426 1.431zm0 5.73a1.422 1.422 0 0 0 1.419 1.433h5.757a1.433 1.433 0 0 0 0-2.865h-5.756a1.433 1.433 0 0 0-1.419 1.431z" style="stroke:none"/>
        <path d="M16.327 2c-.787 0-1.588.061-2.4.188C8.001 3.115 3.22 7.707 2.212 13.412c-.638 3.615.2 7.01 2.006 9.758.37.564.521 1.235.353 1.883l-1.2 4.657c-.16.622.505 1.142 1.103.863l4.273-1.998c.655-.305 1.408-.286 2.079-.015 2.452.988 5.242 1.348 8.169.83 5.87-1.043 10.555-5.666 11.475-11.353C31.864 9.425 24.995 2 16.327 2m5.735 12.893H10.589a1.426 1.426 0 0 1-1.426-1.433c0-.791.652-1.432 1.426-1.432h11.473c.787 0 1.426.635 1.426 1.432 0 .791-.653 1.433-1.426 1.433m-5.724 5.73h-5.756c-.784 0-1.42-.636-1.42-1.433 0-.79.647-1.432 1.42-1.432h5.756c.784 0 1.42.636 1.42 1.432 0 .791-.646 1.433-1.42 1.433M16.327 0c4.893 0 9.485 2.1 12.6 5.759a15.462 15.462 0 0 1 3.517 12.598c-.519 3.21-2.057 6.156-4.45 8.52a16.31 16.31 0 0 1-8.65 4.481 17.33 17.33 0 0 1-3.016.268c-2.153 0-4.256-.407-6.25-1.21-.182-.074-.366-.084-.486-.028l-4.27 1.997a2.791 2.791 0 0 1-1.19.265 2.815 2.815 0 0 1-2.211-1.083 2.715 2.715 0 0 1-.486-2.355l1.2-4.658c.017-.068-.019-.178-.09-.287A15.43 15.43 0 0 1 .344 19.04a15.444 15.444 0 0 1-.101-5.975c.285-1.617.836-3.18 1.637-4.643a15.948 15.948 0 0 1 2.961-3.857A16.255 16.255 0 0 1 13.618.212C14.518.072 15.43 0 16.327 0z" style="fill:#727e98;stroke:none"/>
    </g>
</svg>
