<svg data-name="50%" xmlns="http://www.w3.org/2000/svg" width="19.308" height="19.308" viewBox="0 0 19.308 19.308">
    <g data-name="Path 268" style="fill:#fff">
        <path d="M9.654 18.558c-4.91 0-8.904-3.995-8.904-8.904C.75 4.744 4.744.75 9.654.75s8.904 3.994 8.904 8.904-3.995 8.904-8.904 8.904z" style="stroke:none"/>
        <path d="M9.654 1.5C5.158 1.5 1.5 5.158 1.5 9.654s3.658 8.154 8.154 8.154 8.154-3.658 8.154-8.154S14.15 1.5 9.654 1.5m0-1.5a9.654 9.654 0 1 1 0 19.308A9.654 9.654 0 0 1 9.654 0z" style="fill:#f69643;stroke:none"/>
    </g>
    <path data-name="Union 6" d="M-4 9.418V0c7.022.554 8.3 5.737 8.215 8.442.085 2.707-1.193 7.89-8.215 8.445z" transform="translate(13.651 1.211)" style="fill:#f69643"/>
</svg>
