<svg xmlns="http://www.w3.org/2000/svg" width="36" height="36" viewBox="0 0 36 36">
    <g data-name="Group 61114">
        <g data-name="Group 429">
            <path data-name="Path 259" d="m23.753 22.569-4.147-4.359a10.66 10.66 0 0 0 2.921-7.31A11.087 11.087 0 0 0 11.266 0 11.085 11.085 0 0 0 .006 10.9a11.085 11.085 0 0 0 11.26 10.9 11.441 11.441 0 0 0 7.087-2.435l4.174 4.386a.886.886 0 0 0 1.225 0 .821.821 0 0 0 .001-1.182zm-12.487-2.441A9.38 9.38 0 0 1 1.739 10.9a9.38 9.38 0 0 1 9.528-9.225 9.38 9.38 0 0 1 9.527 9.225 9.38 9.38 0 0 1-9.528 9.228z" transform="translate(5.994 5.999)" style="fill:#3e4a64"/>
        </g>
    </g>
</svg>
