<svg xmlns="http://www.w3.org/2000/svg" width="20.85" height="18.549" viewBox="0 0 20.85 18.549">
    <path data-name="heart (1)" d="M10.425 18.549a1.223 1.223 0 0 1-.806-.3 231.94 231.94 0 0 0-2.371-2.039 44.093 44.093 0 0 1-5.176-4.859A7.76 7.76 0 0 1 0 6.266a6.517 6.517 0 0 1 1.654-4.451A5.607 5.607 0 0 1 5.824 0 5.244 5.244 0 0 1 9.1 1.131a6.7 6.7 0 0 1 1.324 1.383 6.7 6.7 0 0 1 1.325-1.383A5.244 5.244 0 0 1 15.025 0 5.607 5.607 0 0 1 19.2 1.815a6.516 6.516 0 0 1 1.65 4.451 7.759 7.759 0 0 1-2.068 5.08 44.083 44.083 0 0 1-5.176 4.854c-.718.611-1.531 1.3-2.375 2.043a1.224 1.224 0 0 1-.806.306zM5.824 1.221a4.4 4.4 0 0 0-3.272 1.422 5.3 5.3 0 0 0-1.331 3.623 6.53 6.53 0 0 0 1.787 4.3 43.39 43.39 0 0 0 5.028 4.708c.719.613 1.534 1.308 2.383 2.05.854-.743 1.67-1.439 2.391-2.053a43.4 43.4 0 0 0 5.028-4.708 6.53 6.53 0 0 0 1.787-4.3 5.3 5.3 0 0 0-1.325-3.62 4.4 4.4 0 0 0-3.273-1.422A4.051 4.051 0 0 0 12.5 2.1a5.926 5.926 0 0 0-1.409 1.631.771.771 0 0 1-1.324 0A5.921 5.921 0 0 0 8.353 2.1a4.05 4.05 0 0 0-2.529-.879zm0 0" style="fill:#3e4a64"/>
</svg>
